<svg id="Слой_1" data-name="Слой 1" xmlns="http://www.w3.org/2000/svg" viewBox="0 0 139.45 141.53"><defs><style>.cls-1{fill:#f5911c;}.cls-2{fill:#3b82f6;}.cls-3{fill:#fff;}.cls-4{fill:#1d72b2;}.cls-5{fill:#fefefe;}</style></defs><path class="cls-1" d="M-266.36,77.86a2.71,2.71,0,0,0,.33-.63c.42-2.33.74-4.68,1.24-7,.38-1.73,1-3.4,1.48-5.11.4-1.53.6-3.13,1.07-4.63,1.44-4.6,2.88-9.2,4.47-13.75a115,115,0,0,1,7.65-16.93,83,83,0,0,1,13.69-18.95c2.43-2.46,4.66-5.12,7-7.62.89-.93,2-1.6,3-2.5a30.28,30.28,0,0,0,3.27-3.62c2.66-3.69,5.27-7.4,7.75-11.2a34.16,34.16,0,0,0,4.47-10.11,31.78,31.78,0,0,1,3.71,9.75c.71,3.3,1.07,6.68,1.62,10.27.87.1,2,.26,3.21.35A28.56,28.56,0,0,1-191.34-.73a13.3,13.3,0,0,1,5.24,4.91,3.24,3.24,0,0,0,2.63,1.71Q-174.92,7-166.4,8.28c2.24.35,4.45.94,6.66,1.49,1.34.34,1.71,1.07,1.2,2.33a16.09,16.09,0,0,1-1.76,3.52,13.62,13.62,0,0,0-2,5,46.55,46.55,0,0,1-1.39,5.18c-.72,1.84-1.34,3.81-2.9,5.18a8.16,8.16,0,0,1-2.59,1.59,16.68,16.68,0,0,1-7.13.44,9.94,9.94,0,0,0-6.76,1.31,32.8,32.8,0,0,1-4.3,2.09c-2.22,1-4.6.77-7,.84-.46-.79-.85-1.57-1.35-2.29-2.07-3-4.12-6-6.31-9-1-1.33-2.32-2.39-3.43-3.63a10.92,10.92,0,0,1-1.11-1.77l.24-.17-4.58-5.49-.26.06-.34,3.81-.27.14-4.63-4.12-.32.13c0,3.12.4,6.22.57,9.47-.29.25-.63.58-1,.85-1.75,1.26-3.46,2.58-5.27,3.74a6.33,6.33,0,0,0-3,5.16,4.5,4.5,0,0,1-1.41,2.91,16.43,16.43,0,0,0-1.73,2,1.86,1.86,0,0,0,.09,2.58c1.27,1.53,2.55,3.06,3.89,4.53A5.28,5.28,0,0,0-220.34,48c1.06-.05,2.12,0,3.16,0a7,7,0,0,1,.19.82c-.13,3.15-.27,6.31-.4,9.46-.1,2.51-.35,5-.28,7.54a11,11,0,0,0,3.11,7c2.93,3.31,6,6.51,8.93,9.8A2.84,2.84,0,0,1-205,84.4c.07,2.76,0,5.53,0,8.28,0,1.56.3,3.12.43,4.68.1,1.26.2,2.54.23,3.81s0,2.79,0,4.27h.47c-2.15.16-4.29.43-6.44.47a78.15,78.15,0,0,1-13.92-1.06,44.33,44.33,0,0,1-9.83-2.57c-3-1.23-5.91-2.46-8.78-3.84-1.41-.68-2.55-1.94-4-2.56a34.57,34.57,0,0,1-9-6.23c-3-2.7-5.64-5.84-8.38-8.84C-265,79.86-265.7,78.87-266.36,77.86Zm72.09-66.53.2.24,2.93-1.56.87,2.88a4.41,4.41,0,0,0,.18-6.2c-1.76,1.22-3.46,2.49-4.18,4.64Z" transform="translate(289.26 26.82)"/><path class="cls-2" d="M-266.09,77.4c28.75,43,98.67,34.12,116.28-14.57-12.76,56.15-93.28,70.94-125.61,23.39-35.46-44.76,1.92-116.77,59-112.88C-266.35-24.73-296.14,37.45-266.09,77.4Z" transform="translate(289.26 26.82)"/><path class="cls-2" d="M-176,72a12.11,12.11,0,0,1-1.51,6.66c-1,1.58-2.31,2.74-4.32,2.39a5.55,5.55,0,0,1-3.77-2.84c-.12-.2-.23-.42-.33-.63a3.56,3.56,0,0,0-4-2.31,9.68,9.68,0,0,1-3.3-.39,2.22,2.22,0,0,1-1.94-2.46,2.11,2.11,0,0,1,.35-.94,10.47,10.47,0,0,1,2.92-3.55,18,18,0,0,1,5.32-3.35,19.9,19.9,0,0,1,4.5-1.12,4.39,4.39,0,0,1,4.18,2.08A12.07,12.07,0,0,1-176,72Z" transform="translate(289.26 26.82)"/><path class="cls-2" d="M-183.94,56.4c0-3.27,1.35-6.91,4.74-6.26C-172,53-182.83,67.29-183.94,56.4Z" transform="translate(289.26 26.82)"/><path class="cls-2" d="M-174.56,63.4c-1.71,0-2.39-.65-2.43-1.93-.06-2.36,2.58-6,4.83-6.76a3.23,3.23,0,0,1,3.44.72,3,3,0,0,1,.65,3.32c-.81,2.26-2.68,3.38-4.76,4.2A13.34,13.34,0,0,1-174.56,63.4Z" transform="translate(289.26 26.82)"/><path class="cls-2" d="M-192.84,60.23c-.91-5.51,7.59-8.27,6.88-1.73C-185.8,64.32-192.7,68.16-192.84,60.23Z" transform="translate(289.26 26.82)"/><path class="cls-2" d="M-168.8,64.4c9.77,1.91-6,14.1-6,6.43a3.94,3.94,0,0,1,.44-1.75c1.11-2.22,3.13-4.74,5.35-4.7Z" transform="translate(289.26 26.82)"/><path class="cls-1" d="M-206.91-19.17l3.3-4.19.27.1c1.31,5.49,1.69,11-.84,16.53a3.29,3.29,0,0,1-.48-1,57.94,57.94,0,0,0-2.26-11.08A1.43,1.43,0,0,1-206.91-19.17Z" transform="translate(289.26 26.82)"/><path class="cls-3" d="M-220.65,34.16a4.72,4.72,0,0,1-2.55,2.14,2.42,2.42,0,0,1,.54-3.38.76.76,0,0,1,.19-.12l.12,1.68,1.71-.31Z" transform="translate(289.26 26.82)"/><path class="cls-4" d="M-220.64,34.17l.17-.18h0Z" transform="translate(289.26 26.82)"/><path class="cls-5" d="M-194.27,11.33c.72-2.15,2.42-3.42,4.18-4.64a4.41,4.41,0,0,1-.18,6.2l-.87-2.88-2.93,1.56Z" transform="translate(289.26 26.82)"/><polyline class="cls-1" points="82.68 47.47 81.32 45.26 82.91 47.3"/></svg>